<?xml version="1.0" encoding="utf-8"?>
<!-- Generator: Adobe Illustrator 18.1.1, SVG Export Plug-In . SVG Version: 6.00 Build 0)  -->
<!DOCTYPE svg PUBLIC "-//W3C//DTD SVG 1.1//EN" "http://www.w3.org/Graphics/SVG/1.1/DTD/svg11.dtd">
<svg version="1.1" id="Layer_1" xmlns="http://www.w3.org/2000/svg" xmlns:xlink="http://www.w3.org/1999/xlink" x="0px" y="0px"
	 viewBox="0 0 680 816" enable-background="new 0 0 680 816" xml:space="preserve">
<g>
	<rect width="680" height="816"/>
</g>
<g opacity="0.2">
	<circle fill="#FFFFFF" cx="340" cy="365.5" r="60.7"/>
	<path fill="#FFFFFF" d="M520.7,359c-1.5-42-17.6-83.6-48.1-116.5l0.1-0.1l-4.3-4.3c-0.1-0.2-0.3-0.3-0.4-0.5
		c-0.2-0.2-0.4-0.4-0.5-0.5l-4.2-4.2l-0.1,0.1c-17.4-15.5-36.5-23.2-53.5-30c-26.6-10.7-43.9-17.6-52.1-50.7
		c9.1,0.7,17.3,3.6,23.2,9.9C413.4,196.8,326,53,326,53s-21.8,81.9-48.6,112.3c-13.5,15.3,4.5,5.6,29.9-3.3
		c14.2,60.7,52.2,76,83.2,88.4c13.8,5.5,26,10.4,36.3,18.9l-12.2,12.2l-13.7-13.7l-13.7,50.6l50.6-13.7l-13.7-13.7l12.3-12.3
		c20.7,22.9,31.7,51.4,33.2,80.4H452v-19.6l-45.5,26.1l45.5,26.1V372h17.6c-1.5,29-12.5,57.5-33.2,80.4l-12.3-12.3l13.7-13.7
		l-50.6-13.7l13.7,50.6l13.7-13.7l12.5,12.3c-22.9,20.7-51.2,31.7-80.2,33.2V478h19.1L340,432.5L313.9,478H333v17.2
		c-29-1.5-57.3-12.5-80.2-33.2l12.4-12.3l13.8,13.7l13.8-50.6l-50.6,13.7l13.7,13.7l-12.3,12.2c-20.7-22.9-31.7-51.4-33.2-80.4H228
		v19.6l45.5-26.1L228,339.4V359h-17.6c1.5-29,12.5-57.5,33.2-80.4l12.3,12.3l-13.7,13.7l50.6,13.7l-13.7-50.6l-13.7,13.7l-48.5-48.5
		l-4.7,4.7l0,0c-0.2,0.2-0.3,0.3-0.4,0.5l-4.3,4.3l0.1,0.2c-30.6,32.9-46.6,74.5-48.1,116.5H159v13h0.3c1.5,42,17.6,83.6,48.1,116.5
		l-0.1,0.1l4.3,4.3c0.1,0.1,0.3,0.3,0.4,0.5s0.3,0.3,0.4,0.4l4.3,4.3l-0.1-0.1c32.9,30.6,74.2,46.6,116.2,48.1V546h14v0.2
		c42-1.5,83.4-17.6,116.2-48.1l0,0.1l4.2-4.3c0.1-0.1,0.3-0.3,0.4-0.4c0.1-0.1,0.3-0.3,0.4-0.4l4.3-4.3l-0.1-0.2
		c30.6-32.9,46.6-74.5,48.1-116.5h0.3v-13H520.7z"/>
</g>
<path opacity="0.2" fill="#FFFFFF" d="M185.5,614.7L162,669.5h-9.5l-14.1-31.9l-14.4,31.9h-9.5l-23-54.8h16.9l11.2,30l12.9-30h11.7
	l12.7,30l11.8-30H185.5z"/>
<path opacity="0.2" fill="#FFFFFF" d="M207.4,668.8h-16.3v-54.1h16.3V668.8z"/>
<path opacity="0.2" fill="#FFFFFF" d="M276.5,668.8h-19.9l-20.7-25.4v25.4h-16.3v-54.1h16.3v24.2l19.6-24.2h17.7L253.1,640
	L276.5,668.8z"/>
<path opacity="0.2" fill="#FFFFFF" d="M298.3,668.8h-16.3v-54.1h16.3V668.8z"/>
<path opacity="0.2" fill="#FFFFFF" d="M373.3,668.8H357v-31.4l-14.7,18.2H341l-14.8-18.2v31.4h-15.9v-54.1h14.8l16.6,20.3l16.7-20.3
	h14.8V668.8z"/>
<path opacity="0.2" fill="#FFFFFF" d="M426.3,668.8h-40.8v-54.1h40.2v10.9h-23.8v9.9h22.7v10.9h-22.7v11.6h24.5V668.8z"/>
<path opacity="0.2" fill="#FFFFFF" d="M492.1,642.7c0,5.5-1,10-3,13.4c-2,3.4-4.4,6.1-7.1,8.2c-3.9,3-9.3,4.6-16.3,4.6h-29.2v-54.1
	h22.5c3.4,0,6.3,0.2,8.7,0.5c2.4,0.4,4.6,0.8,6.5,1.5c1.9,0.6,3.6,1.4,4.9,2.1c1.4,0.8,2.6,1.6,3.6,2.6c1.8,1.5,3.5,3.3,4.9,5.4
	c1.4,2.1,2.5,4.4,3.3,7.1S492.1,639.5,492.1,642.7z M475.5,642c0-4.4-0.8-7.8-2.5-10.3s-3.7-4.1-6.1-4.9c-2.4-0.8-4.8-1.2-7.2-1.2
	h-7v32.1h7c4.3,0,8-1,11.1-3S475.5,648.3,475.5,642z"/>
<path opacity="0.2" fill="#FFFFFF" d="M517.3,668.8h-16.3v-54.1h16.3V668.8z"/>
<path opacity="0.2" fill="#FFFFFF" d="M588.6,668.8h-16.7l-4.4-11H544l-4.5,11h-16.7l23.9-54.1h18L588.6,668.8z M563.8,648.4
	l-7.9-19.8l-8,19.8H563.8z"/>
<path opacity="0.2" fill="#FFFFFF" d="M164.3,742.8c-2.2,1.2-4.5,2.1-6.9,2.8s-4.7,1.2-7.1,1.5s-4.9,0.4-7.4,0.4
	c-4.7,0-8.9-0.7-12.7-2c-3.7-1.3-7-3.2-9.7-5.8c-2.7-2.5-4.8-5.5-6.2-8.9s-2.1-7.1-2.1-11.2c0-4.7,0.8-8.7,2.4-12.2
	c1.6-3.5,3.9-6.4,6.8-8.7c2.9-2.3,6.2-4,9.9-5.1s7.6-1.7,11.7-1.7c6.1,0,13.1,1.4,20.9,4.1v14.4c-2.7-1.7-5.3-3.1-7.9-4.2
	s-5.7-1.7-9.2-1.7c-3.2,0-6.1,0.6-8.8,1.9s-4.9,3-6.6,5.4c-1.7,2.3-2.5,5-2.5,8.1c0,2.7,0.7,5.2,2.2,7.5c1.5,2.3,3.5,4.1,6.1,5.4
	c2.6,1.3,5.5,2,8.8,2c2.6,0,5.1-0.3,7.5-1s4.3-1.3,5.9-2.1s3.2-1.7,4.9-2.8V742.8z"/>
<path opacity="0.2" fill="#FFFFFF" d="M231.8,719.7c0,5.1-1.2,9.7-3.5,13.9c-2.3,4.2-5.8,7.6-10.4,10.1s-10.2,3.8-16.8,3.8
	c-6.7,0-12.4-1.3-17-3.9c-4.6-2.6-8.1-6-10.3-10.3c-2.3-4.2-3.4-8.8-3.4-13.6c0-4.9,1.1-9.4,3.4-13.7c2.2-4.2,5.7-7.6,10.3-10.2
	s10.3-3.9,17-3.9c5,0,9.5,0.7,13.4,2.2c3.9,1.5,7.1,3.5,9.7,6c2.5,2.5,4.4,5.5,5.7,8.9C231.1,712.4,231.8,716,231.8,719.7z
	 M215.2,719.7c0-2-0.3-3.9-0.9-5.6c-0.6-1.7-1.5-3.1-2.7-4.4s-2.7-2.2-4.4-2.9c-1.7-0.7-3.8-1-6.1-1c-4.4,0-7.8,1.3-10.3,3.8
	s-3.8,5.9-3.8,10s1.3,7.5,3.8,10.1c2.5,2.6,5.9,3.8,10.3,3.8c3,0,5.5-0.6,7.7-1.8s3.7-2.8,4.8-4.9S215.2,722.4,215.2,719.7z"/>
<path opacity="0.2" fill="#FFFFFF" d="M303.5,746.8h-16.3v-31.4l-14.7,18.2h-1.3l-14.8-18.2v31.4h-15.9v-54.1h14.8L272,713
	l16.7-20.3h14.8V746.8z"/>
<path opacity="0.2" fill="#FFFFFF" d="M378.6,746.8h-16.3v-31.4l-14.7,18.2h-1.3l-14.8-18.2v31.4h-15.9v-54.1h14.8l16.6,20.3
	l16.7-20.3h14.8V746.8z"/>
<path opacity="0.2" fill="#FFFFFF" d="M448.8,719.7c0,5.1-1.2,9.7-3.5,13.9c-2.3,4.2-5.8,7.6-10.4,10.1s-10.2,3.8-16.8,3.8
	c-6.7,0-12.4-1.3-17-3.9c-4.6-2.6-8.1-6-10.3-10.3c-2.3-4.2-3.4-8.8-3.4-13.6c0-4.9,1.1-9.4,3.4-13.7c2.2-4.2,5.7-7.6,10.3-10.2
	s10.3-3.9,17-3.9c5,0,9.5,0.7,13.4,2.2c3.9,1.5,7.1,3.5,9.7,6c2.5,2.5,4.4,5.5,5.7,8.9C448.1,712.4,448.8,716,448.8,719.7z
	 M432.2,719.7c0-2-0.3-3.9-0.9-5.6c-0.6-1.7-1.5-3.1-2.7-4.4s-2.7-2.2-4.4-2.9c-1.7-0.7-3.8-1-6.1-1c-4.4,0-7.8,1.3-10.3,3.8
	s-3.8,5.9-3.8,10s1.3,7.5,3.8,10.1c2.5,2.6,5.9,3.8,10.3,3.8c3,0,5.5-0.6,7.7-1.8s3.7-2.8,4.8-4.9S432.2,722.4,432.2,719.7z"/>
<path opacity="0.2" fill="#FFFFFF" d="M516.4,746.8h-14.5l-28.1-30.2v30.2h-16.2v-54.1h14.5l28,30v-30h16.3V746.8z"/>
<path opacity="0.2" fill="#FFFFFF" d="M566.7,731.1c0,3.4-0.9,6.3-2.6,8.8c-1.7,2.5-4.1,4.4-7.2,5.7c-3.1,1.3-6.7,2-10.7,2
	c-1.1,0-2.5-0.1-4.1-0.2c-1.6-0.1-3.8-0.5-6.5-1.2s-5.5-1.6-8.4-2.9v-13.3c2.7,1.7,5.4,3.1,8.1,4.2c2.6,1.1,5.5,1.7,8.5,1.7
	c2.8,0,4.6-0.5,5.4-1.4s1.2-1.8,1.2-2.6c0-1.5-0.7-2.7-2.1-3.7s-3.5-2-6.1-3.1c-3-1.2-5.6-2.6-7.8-4.1c-2.2-1.5-4.1-3.3-5.5-5.5
	c-1.4-2.2-2.1-4.8-2.1-7.9c0-2.9,0.7-5.6,2.1-7.9c1.4-2.4,3.6-4.2,6.6-5.6c2.9-1.4,6.5-2.1,10.8-2.1c3,0,5.8,0.3,8.4,0.9
	c2.6,0.6,4.7,1.2,6.3,2c1.7,0.7,2.8,1.3,3.4,1.7v12.7c-2.2-1.6-4.7-3-7.4-4.3c-2.7-1.2-5.6-1.9-8.7-1.9c-2,0-3.5,0.4-4.4,1.2
	c-0.9,0.8-1.4,1.7-1.4,2.9c0,1.1,0.5,2,1.4,2.8c0.9,0.8,2.5,1.7,4.9,2.9c4.2,2,7.5,3.7,10,5.3s4.5,3.4,5.9,5.4
	C565.9,725.5,566.7,728,566.7,731.1z"/>
</svg>
